<mxfile host="app.diagrams.net" agent="Mozilla/5.0 (Windows NT 10.0; Win64; x64; rv:142.0) Gecko/20100101 Firefox/142.0" version="28.2.0">
  <diagram id="C5RBs43oDa-KdzZeNtuy" name="Page-1">
    <mxGraphModel dx="1375" dy="1920" grid="1" gridSize="10" guides="1" tooltips="1" connect="1" arrows="1" fold="1" page="1" pageScale="1" pageWidth="827" pageHeight="1169" math="0" shadow="0">
      <root>
        <mxCell id="WIyWlLk6GJQsqaUBKTNV-0" />
        <mxCell id="WIyWlLk6GJQsqaUBKTNV-1" parent="WIyWlLk6GJQsqaUBKTNV-0" />
        <mxCell id="uBJ8KjWRZz9OECGpBq9u-0" value="" style="rounded=0;html=1;jettySize=auto;orthogonalLoop=1;fontSize=11;endArrow=block;endFill=0;endSize=8;strokeWidth=1;shadow=0;labelBackgroundColor=none;edgeStyle=orthogonalEdgeStyle;" parent="WIyWlLk6GJQsqaUBKTNV-1" source="uBJ8KjWRZz9OECGpBq9u-1" target="uBJ8KjWRZz9OECGpBq9u-16" edge="1">
          <mxGeometry relative="1" as="geometry">
            <mxPoint x="250" y="-760" as="targetPoint" />
          </mxGeometry>
        </mxCell>
        <mxCell id="uBJ8KjWRZz9OECGpBq9u-1" value="LED ein" style="rounded=1;whiteSpace=wrap;html=1;fontSize=12;glass=0;strokeWidth=1;shadow=0;" parent="WIyWlLk6GJQsqaUBKTNV-1" vertex="1">
          <mxGeometry x="190" y="-850" width="120" height="40" as="geometry" />
        </mxCell>
        <mxCell id="uBJ8KjWRZz9OECGpBq9u-11" style="edgeStyle=orthogonalEdgeStyle;rounded=0;orthogonalLoop=1;jettySize=auto;html=1;exitX=0.5;exitY=1;exitDx=0;exitDy=0;entryX=0.5;entryY=0;entryDx=0;entryDy=0;" parent="WIyWlLk6GJQsqaUBKTNV-1" source="uBJ8KjWRZz9OECGpBq9u-12" target="uBJ8KjWRZz9OECGpBq9u-17" edge="1">
          <mxGeometry relative="1" as="geometry">
            <mxPoint x="250" y="-540" as="targetPoint" />
          </mxGeometry>
        </mxCell>
        <mxCell id="uBJ8KjWRZz9OECGpBq9u-12" value="LED aus" style="rounded=1;whiteSpace=wrap;html=1;fontSize=12;glass=0;strokeWidth=1;shadow=0;" parent="WIyWlLk6GJQsqaUBKTNV-1" vertex="1">
          <mxGeometry x="190" y="-660" width="120" height="40" as="geometry" />
        </mxCell>
        <mxCell id="uBJ8KjWRZz9OECGpBq9u-13" style="edgeStyle=orthogonalEdgeStyle;rounded=0;orthogonalLoop=1;jettySize=auto;html=1;exitX=0.5;exitY=1;exitDx=0;exitDy=0;entryX=0.5;entryY=0;entryDx=0;entryDy=0;" parent="WIyWlLk6GJQsqaUBKTNV-1" source="6EuXl1x95rgEigz8fd3--0" target="6EuXl1x95rgEigz8fd3--2" edge="1">
          <mxGeometry relative="1" as="geometry" />
        </mxCell>
        <mxCell id="uBJ8KjWRZz9OECGpBq9u-14" value="&lt;div&gt;Start&lt;/div&gt;" style="ellipse;whiteSpace=wrap;html=1;" parent="WIyWlLk6GJQsqaUBKTNV-1" vertex="1">
          <mxGeometry x="225" y="-1110" width="50" height="50" as="geometry" />
        </mxCell>
        <mxCell id="uBJ8KjWRZz9OECGpBq9u-19" style="edgeStyle=orthogonalEdgeStyle;rounded=0;orthogonalLoop=1;jettySize=auto;html=1;exitX=0.5;exitY=1;exitDx=0;exitDy=0;entryX=0.5;entryY=0;entryDx=0;entryDy=0;" parent="WIyWlLk6GJQsqaUBKTNV-1" source="uBJ8KjWRZz9OECGpBq9u-16" target="uBJ8KjWRZz9OECGpBq9u-12" edge="1">
          <mxGeometry relative="1" as="geometry" />
        </mxCell>
        <mxCell id="uBJ8KjWRZz9OECGpBq9u-16" value="Warten für halbe&amp;nbsp;Blinkperiode" style="rounded=1;whiteSpace=wrap;html=1;fontSize=12;glass=0;strokeWidth=1;shadow=0;" parent="WIyWlLk6GJQsqaUBKTNV-1" vertex="1">
          <mxGeometry x="190" y="-760" width="120" height="40" as="geometry" />
        </mxCell>
        <mxCell id="6EuXl1x95rgEigz8fd3--4" style="edgeStyle=orthogonalEdgeStyle;rounded=0;orthogonalLoop=1;jettySize=auto;html=1;exitX=0.5;exitY=1;exitDx=0;exitDy=0;entryX=0;entryY=0.5;entryDx=0;entryDy=0;" edge="1" parent="WIyWlLk6GJQsqaUBKTNV-1" source="uBJ8KjWRZz9OECGpBq9u-17" target="6EuXl1x95rgEigz8fd3--0">
          <mxGeometry relative="1" as="geometry">
            <Array as="points">
              <mxPoint x="250" y="-500" />
              <mxPoint x="120" y="-500" />
              <mxPoint x="120" y="-1000" />
            </Array>
          </mxGeometry>
        </mxCell>
        <mxCell id="uBJ8KjWRZz9OECGpBq9u-17" value="Warten für halbe&amp;nbsp;Blinkperiode" style="rounded=1;whiteSpace=wrap;html=1;fontSize=12;glass=0;strokeWidth=1;shadow=0;" parent="WIyWlLk6GJQsqaUBKTNV-1" vertex="1">
          <mxGeometry x="190" y="-570" width="120" height="40" as="geometry" />
        </mxCell>
        <mxCell id="6EuXl1x95rgEigz8fd3--1" value="" style="edgeStyle=orthogonalEdgeStyle;rounded=0;orthogonalLoop=1;jettySize=auto;html=1;exitX=0.5;exitY=1;exitDx=0;exitDy=0;entryX=0.5;entryY=0;entryDx=0;entryDy=0;" edge="1" parent="WIyWlLk6GJQsqaUBKTNV-1" source="uBJ8KjWRZz9OECGpBq9u-14" target="6EuXl1x95rgEigz8fd3--0">
          <mxGeometry relative="1" as="geometry">
            <mxPoint x="250" y="-1060" as="sourcePoint" />
            <mxPoint x="250" y="-800" as="targetPoint" />
          </mxGeometry>
        </mxCell>
        <mxCell id="6EuXl1x95rgEigz8fd3--0" value="Potiwert einlesen" style="rounded=1;whiteSpace=wrap;html=1;fontSize=12;glass=0;strokeWidth=1;shadow=0;" vertex="1" parent="WIyWlLk6GJQsqaUBKTNV-1">
          <mxGeometry x="190" y="-1020" width="120" height="40" as="geometry" />
        </mxCell>
        <mxCell id="6EuXl1x95rgEigz8fd3--5" style="edgeStyle=orthogonalEdgeStyle;rounded=0;orthogonalLoop=1;jettySize=auto;html=1;exitX=0.5;exitY=1;exitDx=0;exitDy=0;entryX=0.5;entryY=0;entryDx=0;entryDy=0;" edge="1" parent="WIyWlLk6GJQsqaUBKTNV-1" source="6EuXl1x95rgEigz8fd3--2" target="uBJ8KjWRZz9OECGpBq9u-1">
          <mxGeometry relative="1" as="geometry" />
        </mxCell>
        <mxCell id="6EuXl1x95rgEigz8fd3--2" value="Potiwert auf Zeit (50ms - 1s) mappen = Blinkperiode" style="rounded=1;whiteSpace=wrap;html=1;fontSize=12;glass=0;strokeWidth=1;shadow=0;" vertex="1" parent="WIyWlLk6GJQsqaUBKTNV-1">
          <mxGeometry x="160" y="-940" width="180" height="40" as="geometry" />
        </mxCell>
      </root>
    </mxGraphModel>
  </diagram>
</mxfile>
